0
SECTION
2
HEADER
9
$INSUNITS
70
4
0
ENDSEC
0
SECTION
2
TABLES
0
TABLE
2
LTYPE
0
LTYPE
72
65
70
64
2
CONTINUOUS
3
______
73
0
40
0
0
ENDTAB
0
TABLE
2
LAYER
0
ENDTAB
0
ENDSEC
0
SECTION
2
ENTITIES
0
LINE
8
0
10
3.025
20
-2.525
11
16.025
21
-2.525
0
LINE
8
0
10
3.025
20
-16.525
11
16.025
21
-16.525
0
LINE
8
0
10
2.525
20
-3.025
11
2.525
21
-16.025
0
LINE
8
0
10
16.525
20
-3.025
11
16.525
21
-16.025
0
ARC
8
0
10
3.025
20
-3.025
40
0.5
50
90
51
180
0
ARC
8
0
10
16.025
20
-3.025
40
0.5
50
0
51
90
0
ARC
8
0
10
3.025
20
-16.025
40
0.5
50
180
51
270
0
ARC
8
0
10
16.025
20
-16.025
40
0.5
50
270
51
0
0
LINE
8
0
10
41.125
20
-2.525
11
54.125
21
-2.525
0
LINE
8
0
10
41.125
20
-16.525
11
54.125
21
-16.525
0
LINE
8
0
10
40.625
20
-3.025
11
40.625
21
-16.025
0
LINE
8
0
10
54.625
20
-3.025
11
54.625
21
-16.025
0
ARC
8
0
10
41.125
20
-3.025
40
0.5
50
90
51
180
0
ARC
8
0
10
54.125
20
-3.025
40
0.5
50
0
51
90
0
ARC
8
0
10
41.125
20
-16.025
40
0.5
50
180
51
270
0
ARC
8
0
10
54.125
20
-16.025
40
0.5
50
270
51
0
0
LINE
8
0
10
60.175
20
-2.525
11
73.175
21
-2.525
0
LINE
8
0
10
60.175
20
-16.525
11
73.175
21
-16.525
0
LINE
8
0
10
59.675
20
-3.025
11
59.675
21
-16.025
0
LINE
8
0
10
73.675
20
-3.025
11
73.675
21
-16.025
0
ARC
8
0
10
60.175
20
-3.025
40
0.5
50
90
51
180
0
ARC
8
0
10
73.175
20
-3.025
40
0.5
50
0
51
90
0
ARC
8
0
10
60.175
20
-16.025
40
0.5
50
180
51
270
0
ARC
8
0
10
73.175
20
-16.025
40
0.5
50
270
51
0
0
LINE
8
0
10
79.225
20
-2.525
11
92.225
21
-2.525
0
LINE
8
0
10
79.225
20
-16.525
11
92.225
21
-16.525
0
LINE
8
0
10
78.725
20
-3.025
11
78.725
21
-16.025
0
LINE
8
0
10
92.725
20
-3.025
11
92.725
21
-16.025
0
ARC
8
0
10
79.225
20
-3.025
40
0.5
50
90
51
180
0
ARC
8
0
10
92.225
20
-3.025
40
0.5
50
0
51
90
0
ARC
8
0
10
79.225
20
-16.025
40
0.5
50
180
51
270
0
ARC
8
0
10
92.225
20
-16.025
40
0.5
50
270
51
0
0
LINE
8
0
10
98.275
20
-2.525
11
111.275
21
-2.525
0
LINE
8
0
10
98.275
20
-16.525
11
111.275
21
-16.525
0
LINE
8
0
10
97.775
20
-3.025
11
97.775
21
-16.025
0
LINE
8
0
10
111.775
20
-3.025
11
111.775
21
-16.025
0
ARC
8
0
10
98.275
20
-3.025
40
0.5
50
90
51
180
0
ARC
8
0
10
111.275
20
-3.025
40
0.5
50
0
51
90
0
ARC
8
0
10
98.275
20
-16.025
40
0.5
50
180
51
270
0
ARC
8
0
10
111.275
20
-16.025
40
0.5
50
270
51
0
0
LINE
8
0
10
126.85
20
-2.525
11
139.85
21
-2.525
0
LINE
8
0
10
126.85
20
-16.525
11
139.85
21
-16.525
0
LINE
8
0
10
126.35
20
-3.025
11
126.35
21
-16.025
0
LINE
8
0
10
140.35
20
-3.025
11
140.35
21
-16.025
0
ARC
8
0
10
126.85
20
-3.025
40
0.5
50
90
51
180
0
ARC
8
0
10
139.85
20
-3.025
40
0.5
50
0
51
90
0
ARC
8
0
10
126.85
20
-16.025
40
0.5
50
180
51
270
0
ARC
8
0
10
139.85
20
-16.025
40
0.5
50
270
51
0
0
LINE
8
0
10
145.9
20
-2.525
11
158.9
21
-2.525
0
LINE
8
0
10
145.9
20
-16.525
11
158.9
21
-16.525
0
LINE
8
0
10
145.4
20
-3.025
11
145.4
21
-16.025
0
LINE
8
0
10
159.4
20
-3.025
11
159.4
21
-16.025
0
ARC
8
0
10
145.9
20
-3.025
40
0.5
50
90
51
180
0
ARC
8
0
10
158.9
20
-3.025
40
0.5
50
0
51
90
0
ARC
8
0
10
145.9
20
-16.025
40
0.5
50
180
51
270
0
ARC
8
0
10
158.9
20
-16.025
40
0.5
50
270
51
0
0
LINE
8
0
10
164.95
20
-2.525
11
177.95
21
-2.525
0
LINE
8
0
10
164.95
20
-16.525
11
177.95
21
-16.525
0
LINE
8
0
10
164.45
20
-3.025
11
164.45
21
-16.025
0
LINE
8
0
10
178.45
20
-3.025
11
178.45
21
-16.025
0
ARC
8
0
10
164.95
20
-3.025
40
0.5
50
90
51
180
0
ARC
8
0
10
177.95
20
-3.025
40
0.5
50
0
51
90
0
ARC
8
0
10
164.95
20
-16.025
40
0.5
50
180
51
270
0
ARC
8
0
10
177.95
20
-16.025
40
0.5
50
270
51
0
0
LINE
8
0
10
184
20
-2.525
11
197
21
-2.525
0
LINE
8
0
10
184
20
-16.525
11
197
21
-16.525
0
LINE
8
0
10
183.5
20
-3.025
11
183.5
21
-16.025
0
LINE
8
0
10
197.5
20
-3.025
11
197.5
21
-16.025
0
ARC
8
0
10
184
20
-3.025
40
0.5
50
90
51
180
0
ARC
8
0
10
197
20
-3.025
40
0.5
50
0
51
90
0
ARC
8
0
10
184
20
-16.025
40
0.5
50
180
51
270
0
ARC
8
0
10
197
20
-16.025
40
0.5
50
270
51
0
0
LINE
8
0
10
212.575
20
-2.525
11
225.575
21
-2.525
0
LINE
8
0
10
212.575
20
-16.525
11
225.575
21
-16.525
0
LINE
8
0
10
212.075
20
-3.025
11
212.075
21
-16.025
0
LINE
8
0
10
226.075
20
-3.025
11
226.075
21
-16.025
0
ARC
8
0
10
212.575
20
-3.025
40
0.5
50
90
51
180
0
ARC
8
0
10
225.575
20
-3.025
40
0.5
50
0
51
90
0
ARC
8
0
10
212.575
20
-16.025
40
0.5
50
180
51
270
0
ARC
8
0
10
225.575
20
-16.025
40
0.5
50
270
51
0
0
LINE
8
0
10
231.625
20
-2.525
11
244.625
21
-2.525
0
LINE
8
0
10
231.625
20
-16.525
11
244.625
21
-16.525
0
LINE
8
0
10
231.125
20
-3.025
11
231.125
21
-16.025
0
LINE
8
0
10
245.125
20
-3.025
11
245.125
21
-16.025
0
ARC
8
0
10
231.625
20
-3.025
40
0.5
50
90
51
180
0
ARC
8
0
10
244.625
20
-3.025
40
0.5
50
0
51
90
0
ARC
8
0
10
231.625
20
-16.025
40
0.5
50
180
51
270
0
ARC
8
0
10
244.625
20
-16.025
40
0.5
50
270
51
0
0
LINE
8
0
10
250.675
20
-2.525
11
263.675
21
-2.525
0
LINE
8
0
10
250.675
20
-16.525
11
263.675
21
-16.525
0
LINE
8
0
10
250.175
20
-3.025
11
250.175
21
-16.025
0
LINE
8
0
10
264.175
20
-3.025
11
264.175
21
-16.025
0
ARC
8
0
10
250.675
20
-3.025
40
0.5
50
90
51
180
0
ARC
8
0
10
263.675
20
-3.025
40
0.5
50
0
51
90
0
ARC
8
0
10
250.675
20
-16.025
40
0.5
50
180
51
270
0
ARC
8
0
10
263.675
20
-16.025
40
0.5
50
270
51
0
0
LINE
8
0
10
269.725
20
-2.525
11
282.725
21
-2.525
0
LINE
8
0
10
269.725
20
-16.525
11
282.725
21
-16.525
0
LINE
8
0
10
269.225
20
-3.025
11
269.225
21
-16.025
0
LINE
8
0
10
283.225
20
-3.025
11
283.225
21
-16.025
0
ARC
8
0
10
269.725
20
-3.025
40
0.5
50
90
51
180
0
ARC
8
0
10
282.725
20
-3.025
40
0.5
50
0
51
90
0
ARC
8
0
10
269.725
20
-16.025
40
0.5
50
180
51
270
0
ARC
8
0
10
282.725
20
-16.025
40
0.5
50
270
51
0
0
LINE
8
0
10
298.3
20
-2.525
11
311.3
21
-2.525
0
LINE
8
0
10
298.3
20
-16.525
11
311.3
21
-16.525
0
LINE
8
0
10
297.8
20
-3.025
11
297.8
21
-16.025
0
LINE
8
0
10
311.8
20
-3.025
11
311.8
21
-16.025
0
ARC
8
0
10
298.3
20
-3.025
40
0.5
50
90
51
180
0
ARC
8
0
10
311.3
20
-3.025
40
0.5
50
0
51
90
0
ARC
8
0
10
298.3
20
-16.025
40
0.5
50
180
51
270
0
ARC
8
0
10
311.3
20
-16.025
40
0.5
50
270
51
0
0
LINE
8
0
10
317.35
20
-2.525
11
330.35
21
-2.525
0
LINE
8
0
10
317.35
20
-16.525
11
330.35
21
-16.525
0
LINE
8
0
10
316.85
20
-3.025
11
316.85
21
-16.025
0
LINE
8
0
10
330.85
20
-3.025
11
330.85
21
-16.025
0
ARC
8
0
10
317.35
20
-3.025
40
0.5
50
90
51
180
0
ARC
8
0
10
330.35
20
-3.025
40
0.5
50
0
51
90
0
ARC
8
0
10
317.35
20
-16.025
40
0.5
50
180
51
270
0
ARC
8
0
10
330.35
20
-16.025
40
0.5
50
270
51
0
0
LINE
8
0
10
336.4
20
-2.525
11
349.4
21
-2.525
0
LINE
8
0
10
336.4
20
-16.525
11
349.4
21
-16.525
0
LINE
8
0
10
335.9
20
-3.025
11
335.9
21
-16.025
0
LINE
8
0
10
349.9
20
-3.025
11
349.9
21
-16.025
0
ARC
8
0
10
336.4
20
-3.025
40
0.5
50
90
51
180
0
ARC
8
0
10
349.4
20
-3.025
40
0.5
50
0
51
90
0
ARC
8
0
10
336.4
20
-16.025
40
0.5
50
180
51
270
0
ARC
8
0
10
349.4
20
-16.025
40
0.5
50
270
51
0
0
LINE
8
0
10
3.025
20
-31.1
11
16.025
21
-31.1
0
LINE
8
0
10
3.025
20
-45.1
11
16.025
21
-45.1
0
LINE
8
0
10
2.525
20
-31.6
11
2.525
21
-44.6
0
LINE
8
0
10
16.525
20
-31.6
11
16.525
21
-44.6
0
ARC
8
0
10
3.025
20
-31.6
40
0.5
50
90
51
180
0
ARC
8
0
10
16.025
20
-31.6
40
0.5
50
0
51
90
0
ARC
8
0
10
3.025
20
-44.6
40
0.5
50
180
51
270
0
ARC
8
0
10
16.025
20
-44.6
40
0.5
50
270
51
0
0
LINE
8
0
10
22.075
20
-31.1
11
35.075
21
-31.1
0
LINE
8
0
10
22.075
20
-45.1
11
35.075
21
-45.1
0
LINE
8
0
10
21.575
20
-31.6
11
21.575
21
-44.6
0
LINE
8
0
10
35.575
20
-31.6
11
35.575
21
-44.6
0
ARC
8
0
10
22.075
20
-31.6
40
0.5
50
90
51
180
0
ARC
8
0
10
35.075
20
-31.6
40
0.5
50
0
51
90
0
ARC
8
0
10
22.075
20
-44.6
40
0.5
50
180
51
270
0
ARC
8
0
10
35.075
20
-44.6
40
0.5
50
270
51
0
0
LINE
8
0
10
41.125
20
-31.1
11
54.125
21
-31.1
0
LINE
8
0
10
41.125
20
-45.1
11
54.125
21
-45.1
0
LINE
8
0
10
40.625
20
-31.6
11
40.625
21
-44.6
0
LINE
8
0
10
54.625
20
-31.6
11
54.625
21
-44.6
0
ARC
8
0
10
41.125
20
-31.6
40
0.5
50
90
51
180
0
ARC
8
0
10
54.125
20
-31.6
40
0.5
50
0
51
90
0
ARC
8
0
10
41.125
20
-44.6
40
0.5
50
180
51
270
0
ARC
8
0
10
54.125
20
-44.6
40
0.5
50
270
51
0
0
LINE
8
0
10
60.175
20
-31.1
11
73.175
21
-31.1
0
LINE
8
0
10
60.175
20
-45.1
11
73.175
21
-45.1
0
LINE
8
0
10
59.675
20
-31.6
11
59.675
21
-44.6
0
LINE
8
0
10
73.675
20
-31.6
11
73.675
21
-44.6
0
ARC
8
0
10
60.175
20
-31.6
40
0.5
50
90
51
180
0
ARC
8
0
10
73.175
20
-31.6
40
0.5
50
0
51
90
0
ARC
8
0
10
60.175
20
-44.6
40
0.5
50
180
51
270
0
ARC
8
0
10
73.175
20
-44.6
40
0.5
50
270
51
0
0
LINE
8
0
10
79.225
20
-31.1
11
92.225
21
-31.1
0
LINE
8
0
10
79.225
20
-45.1
11
92.225
21
-45.1
0
LINE
8
0
10
78.725
20
-31.6
11
78.725
21
-44.6
0
LINE
8
0
10
92.725
20
-31.6
11
92.725
21
-44.6
0
ARC
8
0
10
79.225
20
-31.6
40
0.5
50
90
51
180
0
ARC
8
0
10
92.225
20
-31.6
40
0.5
50
0
51
90
0
ARC
8
0
10
79.225
20
-44.6
40
0.5
50
180
51
270
0
ARC
8
0
10
92.225
20
-44.6
40
0.5
50
270
51
0
0
LINE
8
0
10
98.275
20
-31.1
11
111.275
21
-31.1
0
LINE
8
0
10
98.275
20
-45.1
11
111.275
21
-45.1
0
LINE
8
0
10
97.775
20
-31.6
11
97.775
21
-44.6
0
LINE
8
0
10
111.775
20
-31.6
11
111.775
21
-44.6
0
ARC
8
0
10
98.275
20
-31.6
40
0.5
50
90
51
180
0
ARC
8
0
10
111.275
20
-31.6
40
0.5
50
0
51
90
0
ARC
8
0
10
98.275
20
-44.6
40
0.5
50
180
51
270
0
ARC
8
0
10
111.275
20
-44.6
40
0.5
50
270
51
0
0
LINE
8
0
10
117.325
20
-31.1
11
130.325
21
-31.1
0
LINE
8
0
10
117.325
20
-45.1
11
130.325
21
-45.1
0
LINE
8
0
10
116.825
20
-31.6
11
116.825
21
-44.6
0
LINE
8
0
10
130.825
20
-31.6
11
130.825
21
-44.6
0
ARC
8
0
10
117.325
20
-31.6
40
0.5
50
90
51
180
0
ARC
8
0
10
130.325
20
-31.6
40
0.5
50
0
51
90
0
ARC
8
0
10
117.325
20
-44.6
40
0.5
50
180
51
270
0
ARC
8
0
10
130.325
20
-44.6
40
0.5
50
270
51
0
0
LINE
8
0
10
136.375
20
-31.1
11
149.375
21
-31.1
0
LINE
8
0
10
136.375
20
-45.1
11
149.375
21
-45.1
0
LINE
8
0
10
135.875
20
-31.6
11
135.875
21
-44.6
0
LINE
8
0
10
149.875
20
-31.6
11
149.875
21
-44.6
0
ARC
8
0
10
136.375
20
-31.6
40
0.5
50
90
51
180
0
ARC
8
0
10
149.375
20
-31.6
40
0.5
50
0
51
90
0
ARC
8
0
10
136.375
20
-44.6
40
0.5
50
180
51
270
0
ARC
8
0
10
149.375
20
-44.6
40
0.5
50
270
51
0
0
LINE
8
0
10
155.425
20
-31.1
11
168.425
21
-31.1
0
LINE
8
0
10
155.425
20
-45.1
11
168.425
21
-45.1
0
LINE
8
0
10
154.925
20
-31.6
11
154.925
21
-44.6
0
LINE
8
0
10
168.925
20
-31.6
11
168.925
21
-44.6
0
ARC
8
0
10
155.425
20
-31.6
40
0.5
50
90
51
180
0
ARC
8
0
10
168.425
20
-31.6
40
0.5
50
0
51
90
0
ARC
8
0
10
155.425
20
-44.6
40
0.5
50
180
51
270
0
ARC
8
0
10
168.425
20
-44.6
40
0.5
50
270
51
0
0
LINE
8
0
10
174.475
20
-31.1
11
187.475
21
-31.1
0
LINE
8
0
10
174.475
20
-45.1
11
187.475
21
-45.1
0
LINE
8
0
10
173.975
20
-31.6
11
173.975
21
-44.6
0
LINE
8
0
10
187.975
20
-31.6
11
187.975
21
-44.6
0
ARC
8
0
10
174.475
20
-31.6
40
0.5
50
90
51
180
0
ARC
8
0
10
187.475
20
-31.6
40
0.5
50
0
51
90
0
ARC
8
0
10
174.475
20
-44.6
40
0.5
50
180
51
270
0
ARC
8
0
10
187.475
20
-44.6
40
0.5
50
270
51
0
0
LINE
8
0
10
193.525
20
-31.1
11
206.525
21
-31.1
0
LINE
8
0
10
193.525
20
-45.1
11
206.525
21
-45.1
0
LINE
8
0
10
193.025
20
-31.6
11
193.025
21
-44.6
0
LINE
8
0
10
207.025
20
-31.6
11
207.025
21
-44.6
0
ARC
8
0
10
193.525
20
-31.6
40
0.5
50
90
51
180
0
ARC
8
0
10
206.525
20
-31.6
40
0.5
50
0
51
90
0
ARC
8
0
10
193.525
20
-44.6
40
0.5
50
180
51
270
0
ARC
8
0
10
206.525
20
-44.6
40
0.5
50
270
51
0
0
LINE
8
0
10
212.575
20
-31.1
11
225.575
21
-31.1
0
LINE
8
0
10
212.575
20
-45.1
11
225.575
21
-45.1
0
LINE
8
0
10
212.075
20
-31.6
11
212.075
21
-44.6
0
LINE
8
0
10
226.075
20
-31.6
11
226.075
21
-44.6
0
ARC
8
0
10
212.575
20
-31.6
40
0.5
50
90
51
180
0
ARC
8
0
10
225.575
20
-31.6
40
0.5
50
0
51
90
0
ARC
8
0
10
212.575
20
-44.6
40
0.5
50
180
51
270
0
ARC
8
0
10
225.575
20
-44.6
40
0.5
50
270
51
0
0
LINE
8
0
10
231.625
20
-31.1
11
244.625
21
-31.1
0
LINE
8
0
10
231.625
20
-45.1
11
244.625
21
-45.1
0
LINE
8
0
10
231.125
20
-31.6
11
231.125
21
-44.6
0
LINE
8
0
10
245.125
20
-31.6
11
245.125
21
-44.6
0
ARC
8
0
10
231.625
20
-31.6
40
0.5
50
90
51
180
0
ARC
8
0
10
244.625
20
-31.6
40
0.5
50
0
51
90
0
ARC
8
0
10
231.625
20
-44.6
40
0.5
50
180
51
270
0
ARC
8
0
10
244.625
20
-44.6
40
0.5
50
270
51
0
0
LINE
8
0
10
260.2
20
-31.1
11
273.2
21
-31.1
0
LINE
8
0
10
260.2
20
-45.1
11
273.2
21
-45.1
0
LINE
8
0
10
259.7
20
-31.6
11
259.7
21
-44.6
0
LINE
8
0
10
273.7
20
-31.6
11
273.7
21
-44.6
0
ARC
8
0
10
260.2
20
-31.6
40
0.5
50
90
51
180
0
ARC
8
0
10
273.2
20
-31.6
40
0.5
50
0
51
90
0
ARC
8
0
10
260.2
20
-44.6
40
0.5
50
180
51
270
0
ARC
8
0
10
273.2
20
-44.6
40
0.5
50
270
51
0
0
LINE
8
0
10
251.9346
20
-32.4104
11
257.5894
21
-32.4104
0
LINE
8
0
10
258.0894
20
-32.9104
11
258.0894
21
-33.2232
0
LINE
8
0
10
258.0894
20
-33.2232
11
266.7
21
-33.2232
0
LINE
8
0
10
266.7
20
-43.9166
11
258.5894
21
-43.9166
0
LINE
8
0
10
258.0894
20
-44.4166
11
258.0894
21
-44.704
0
LINE
8
0
10
258.0894
20
-44.704
11
256.786
21
-44.704
0
LINE
8
0
10
256.286
20
-45.204
11
256.286
21
-45.3724
0
LINE
8
0
10
255.786
20
-45.8724
11
253.738
21
-45.8724
0
LINE
8
0
10
253.238
20
-45.3724
11
253.238
21
-45.204
0
LINE
8
0
10
252.738
20
-44.704
11
251.9346
21
-44.704
0
LINE
8
0
10
251.4346
20
-44.204
11
251.4346
21
-39.108
0
LINE
8
0
10
250.9346
20
-38.608
11
250.571
21
-38.608
0
LINE
8
0
10
250.571
20
-38.608
11
250.571
21
-36.314
0
LINE
8
0
10
251.071
20
-35.814
11
251.4346
21
-35.814
0
LINE
8
0
10
251.4346
20
-35.814
11
251.4346
21
-32.9104
0
ARC
8
0
10
257.5894
20
-32.9104
40
0.5
50
0
51
90
0
ARC
8
0
10
258.5894
20
-44.4166
40
0.5
50
90
51
180
0
ARC
8
0
10
256.786
20
-45.204
40
0.5
50
90
51
180
0
ARC
8
0
10
255.786
20
-45.3724
40
0.5
50
270
51
0
0
ARC
8
0
10
253.738
20
-45.3724
40
0.5
50
180
51
270
0
ARC
8
0
10
252.738
20
-45.204
40
0.5
50
0
51
90
0
ARC
8
0
10
251.9346
20
-44.204
40
0.5
50
180
51
270
0
ARC
8
0
10
250.9346
20
-39.108
40
0.5
50
0
51
90
0
ARC
8
0
10
251.071
20
-36.314
40
0.5
50
90
51
180
0
ARC
8
0
10
251.9346
20
-32.9104
40
0.5
50
90
51
180
0
LINE
8
0
10
281.4654
20
-32.4104
11
275.8106
21
-32.4104
0
LINE
8
0
10
275.3106
20
-32.9104
11
275.3106
21
-33.2232
0
LINE
8
0
10
275.3106
20
-33.2232
11
266.7
21
-33.2232
0
LINE
8
0
10
266.7
20
-43.9166
11
274.8106
21
-43.9166
0
LINE
8
0
10
275.3106
20
-44.4166
11
275.3106
21
-44.704
0
LINE
8
0
10
275.3106
20
-44.704
11
276.614
21
-44.704
0
LINE
8
0
10
277.114
20
-45.204
11
277.114
21
-45.3724
0
LINE
8
0
10
277.614
20
-45.8724
11
279.662
21
-45.8724
0
LINE
8
0
10
280.162
20
-45.3724
11
280.162
21
-45.204
0
LINE
8
0
10
280.662
20
-44.704
11
281.4654
21
-44.704
0
LINE
8
0
10
281.9654
20
-44.204
11
281.9654
21
-39.108
0
LINE
8
0
10
282.4654
20
-38.608
11
282.829
21
-38.608
0
LINE
8
0
10
282.829
20
-38.608
11
282.829
21
-36.314
0
LINE
8
0
10
282.329
20
-35.814
11
281.9654
21
-35.814
0
LINE
8
0
10
281.9654
20
-35.814
11
281.9654
21
-32.9104
0
ARC
8
0
10
275.8106
20
-32.9104
40
0.5
50
90
51
180
0
ARC
8
0
10
274.8106
20
-44.4166
40
0.5
50
0
51
90
0
ARC
8
0
10
276.614
20
-45.204
40
0.5
50
0
51
90
0
ARC
8
0
10
277.614
20
-45.3724
40
0.5
50
180
51
270
0
ARC
8
0
10
279.662
20
-45.3724
40
0.5
50
270
51
0
0
ARC
8
0
10
280.662
20
-45.204
40
0.5
50
90
51
180
0
ARC
8
0
10
281.4654
20
-44.204
40
0.5
50
270
51
0
0
ARC
8
0
10
282.4654
20
-39.108
40
0.5
50
90
51
180
0
ARC
8
0
10
282.329
20
-36.314
40
0.5
50
0
51
90
0
ARC
8
0
10
281.4654
20
-32.9104
40
0.5
50
0
51
90
0
LINE
8
0
10
298.3
20
-31.1
11
311.3
21
-31.1
0
LINE
8
0
10
298.3
20
-45.1
11
311.3
21
-45.1
0
LINE
8
0
10
297.8
20
-31.6
11
297.8
21
-44.6
0
LINE
8
0
10
311.8
20
-31.6
11
311.8
21
-44.6
0
ARC
8
0
10
298.3
20
-31.6
40
0.5
50
90
51
180
0
ARC
8
0
10
311.3
20
-31.6
40
0.5
50
0
51
90
0
ARC
8
0
10
298.3
20
-44.6
40
0.5
50
180
51
270
0
ARC
8
0
10
311.3
20
-44.6
40
0.5
50
270
51
0
0
LINE
8
0
10
317.35
20
-31.1
11
330.35
21
-31.1
0
LINE
8
0
10
317.35
20
-45.1
11
330.35
21
-45.1
0
LINE
8
0
10
316.85
20
-31.6
11
316.85
21
-44.6
0
LINE
8
0
10
330.85
20
-31.6
11
330.85
21
-44.6
0
ARC
8
0
10
317.35
20
-31.6
40
0.5
50
90
51
180
0
ARC
8
0
10
330.35
20
-31.6
40
0.5
50
0
51
90
0
ARC
8
0
10
317.35
20
-44.6
40
0.5
50
180
51
270
0
ARC
8
0
10
330.35
20
-44.6
40
0.5
50
270
51
0
0
LINE
8
0
10
336.4
20
-31.1
11
349.4
21
-31.1
0
LINE
8
0
10
336.4
20
-45.1
11
349.4
21
-45.1
0
LINE
8
0
10
335.9
20
-31.6
11
335.9
21
-44.6
0
LINE
8
0
10
349.9
20
-31.6
11
349.9
21
-44.6
0
ARC
8
0
10
336.4
20
-31.6
40
0.5
50
90
51
180
0
ARC
8
0
10
349.4
20
-31.6
40
0.5
50
0
51
90
0
ARC
8
0
10
336.4
20
-44.6
40
0.5
50
180
51
270
0
ARC
8
0
10
349.4
20
-44.6
40
0.5
50
270
51
0
0
LINE
8
0
10
7.7875
20
-50.15
11
20.7875
21
-50.15
0
LINE
8
0
10
7.7875
20
-64.15
11
20.7875
21
-64.15
0
LINE
8
0
10
7.2875
20
-50.65
11
7.2875
21
-63.65
0
LINE
8
0
10
21.2875
20
-50.65
11
21.2875
21
-63.65
0
ARC
8
0
10
7.7875
20
-50.65
40
0.5
50
90
51
180
0
ARC
8
0
10
20.7875
20
-50.65
40
0.5
50
0
51
90
0
ARC
8
0
10
7.7875
20
-63.65
40
0.5
50
180
51
270
0
ARC
8
0
10
20.7875
20
-63.65
40
0.5
50
270
51
0
0
LINE
8
0
10
31.6
20
-50.15
11
44.6
21
-50.15
0
LINE
8
0
10
31.6
20
-64.15
11
44.6
21
-64.15
0
LINE
8
0
10
31.1
20
-50.65
11
31.1
21
-63.65
0
LINE
8
0
10
45.1
20
-50.65
11
45.1
21
-63.65
0
ARC
8
0
10
31.6
20
-50.65
40
0.5
50
90
51
180
0
ARC
8
0
10
44.6
20
-50.65
40
0.5
50
0
51
90
0
ARC
8
0
10
31.6
20
-63.65
40
0.5
50
180
51
270
0
ARC
8
0
10
44.6
20
-63.65
40
0.5
50
270
51
0
0
LINE
8
0
10
50.65
20
-50.15
11
63.65
21
-50.15
0
LINE
8
0
10
50.65
20
-64.15
11
63.65
21
-64.15
0
LINE
8
0
10
50.15
20
-50.65
11
50.15
21
-63.65
0
LINE
8
0
10
64.15
20
-50.65
11
64.15
21
-63.65
0
ARC
8
0
10
50.65
20
-50.65
40
0.5
50
90
51
180
0
ARC
8
0
10
63.65
20
-50.65
40
0.5
50
0
51
90
0
ARC
8
0
10
50.65
20
-63.65
40
0.5
50
180
51
270
0
ARC
8
0
10
63.65
20
-63.65
40
0.5
50
270
51
0
0
LINE
8
0
10
69.7
20
-50.15
11
82.7
21
-50.15
0
LINE
8
0
10
69.7
20
-64.15
11
82.7
21
-64.15
0
LINE
8
0
10
69.2
20
-50.65
11
69.2
21
-63.65
0
LINE
8
0
10
83.2
20
-50.65
11
83.2
21
-63.65
0
ARC
8
0
10
69.7
20
-50.65
40
0.5
50
90
51
180
0
ARC
8
0
10
82.7
20
-50.65
40
0.5
50
0
51
90
0
ARC
8
0
10
69.7
20
-63.65
40
0.5
50
180
51
270
0
ARC
8
0
10
82.7
20
-63.65
40
0.5
50
270
51
0
0
LINE
8
0
10
88.75
20
-50.15
11
101.75
21
-50.15
0
LINE
8
0
10
88.75
20
-64.15
11
101.75
21
-64.15
0
LINE
8
0
10
88.25
20
-50.65
11
88.25
21
-63.65
0
LINE
8
0
10
102.25
20
-50.65
11
102.25
21
-63.65
0
ARC
8
0
10
88.75
20
-50.65
40
0.5
50
90
51
180
0
ARC
8
0
10
101.75
20
-50.65
40
0.5
50
0
51
90
0
ARC
8
0
10
88.75
20
-63.65
40
0.5
50
180
51
270
0
ARC
8
0
10
101.75
20
-63.65
40
0.5
50
270
51
0
0
LINE
8
0
10
107.8
20
-50.15
11
120.8
21
-50.15
0
LINE
8
0
10
107.8
20
-64.15
11
120.8
21
-64.15
0
LINE
8
0
10
107.3
20
-50.65
11
107.3
21
-63.65
0
LINE
8
0
10
121.3
20
-50.65
11
121.3
21
-63.65
0
ARC
8
0
10
107.8
20
-50.65
40
0.5
50
90
51
180
0
ARC
8
0
10
120.8
20
-50.65
40
0.5
50
0
51
90
0
ARC
8
0
10
107.8
20
-63.65
40
0.5
50
180
51
270
0
ARC
8
0
10
120.8
20
-63.65
40
0.5
50
270
51
0
0
LINE
8
0
10
126.85
20
-50.15
11
139.85
21
-50.15
0
LINE
8
0
10
126.85
20
-64.15
11
139.85
21
-64.15
0
LINE
8
0
10
126.35
20
-50.65
11
126.35
21
-63.65
0
LINE
8
0
10
140.35
20
-50.65
11
140.35
21
-63.65
0
ARC
8
0
10
126.85
20
-50.65
40
0.5
50
90
51
180
0
ARC
8
0
10
139.85
20
-50.65
40
0.5
50
0
51
90
0
ARC
8
0
10
126.85
20
-63.65
40
0.5
50
180
51
270
0
ARC
8
0
10
139.85
20
-63.65
40
0.5
50
270
51
0
0
LINE
8
0
10
145.9
20
-50.15
11
158.9
21
-50.15
0
LINE
8
0
10
145.9
20
-64.15
11
158.9
21
-64.15
0
LINE
8
0
10
145.4
20
-50.65
11
145.4
21
-63.65
0
LINE
8
0
10
159.4
20
-50.65
11
159.4
21
-63.65
0
ARC
8
0
10
145.9
20
-50.65
40
0.5
50
90
51
180
0
ARC
8
0
10
158.9
20
-50.65
40
0.5
50
0
51
90
0
ARC
8
0
10
145.9
20
-63.65
40
0.5
50
180
51
270
0
ARC
8
0
10
158.9
20
-63.65
40
0.5
50
270
51
0
0
LINE
8
0
10
164.95
20
-50.15
11
177.95
21
-50.15
0
LINE
8
0
10
164.95
20
-64.15
11
177.95
21
-64.15
0
LINE
8
0
10
164.45
20
-50.65
11
164.45
21
-63.65
0
LINE
8
0
10
178.45
20
-50.65
11
178.45
21
-63.65
0
ARC
8
0
10
164.95
20
-50.65
40
0.5
50
90
51
180
0
ARC
8
0
10
177.95
20
-50.65
40
0.5
50
0
51
90
0
ARC
8
0
10
164.95
20
-63.65
40
0.5
50
180
51
270
0
ARC
8
0
10
177.95
20
-63.65
40
0.5
50
270
51
0
0
LINE
8
0
10
184
20
-50.15
11
197
21
-50.15
0
LINE
8
0
10
184
20
-64.15
11
197
21
-64.15
0
LINE
8
0
10
183.5
20
-50.65
11
183.5
21
-63.65
0
LINE
8
0
10
197.5
20
-50.65
11
197.5
21
-63.65
0
ARC
8
0
10
184
20
-50.65
40
0.5
50
90
51
180
0
ARC
8
0
10
197
20
-50.65
40
0.5
50
0
51
90
0
ARC
8
0
10
184
20
-63.65
40
0.5
50
180
51
270
0
ARC
8
0
10
197
20
-63.65
40
0.5
50
270
51
0
0
LINE
8
0
10
203.05
20
-50.15
11
216.05
21
-50.15
0
LINE
8
0
10
203.05
20
-64.15
11
216.05
21
-64.15
0
LINE
8
0
10
202.55
20
-50.65
11
202.55
21
-63.65
0
LINE
8
0
10
216.55
20
-50.65
11
216.55
21
-63.65
0
ARC
8
0
10
203.05
20
-50.65
40
0.5
50
90
51
180
0
ARC
8
0
10
216.05
20
-50.65
40
0.5
50
0
51
90
0
ARC
8
0
10
203.05
20
-63.65
40
0.5
50
180
51
270
0
ARC
8
0
10
216.05
20
-63.65
40
0.5
50
270
51
0
0
LINE
8
0
10
222.1
20
-50.15
11
235.1
21
-50.15
0
LINE
8
0
10
222.1
20
-64.15
11
235.1
21
-64.15
0
LINE
8
0
10
221.6
20
-50.65
11
221.6
21
-63.65
0
LINE
8
0
10
235.6
20
-50.65
11
235.6
21
-63.65
0
ARC
8
0
10
222.1
20
-50.65
40
0.5
50
90
51
180
0
ARC
8
0
10
235.1
20
-50.65
40
0.5
50
0
51
90
0
ARC
8
0
10
222.1
20
-63.65
40
0.5
50
180
51
270
0
ARC
8
0
10
235.1
20
-63.65
40
0.5
50
270
51
0
0
LINE
8
0
10
241.15
20
-50.15
11
254.15
21
-50.15
0
LINE
8
0
10
241.15
20
-64.15
11
254.15
21
-64.15
0
LINE
8
0
10
240.65
20
-50.65
11
240.65
21
-63.65
0
LINE
8
0
10
254.65
20
-50.65
11
254.65
21
-63.65
0
ARC
8
0
10
241.15
20
-50.65
40
0.5
50
90
51
180
0
ARC
8
0
10
254.15
20
-50.65
40
0.5
50
0
51
90
0
ARC
8
0
10
241.15
20
-63.65
40
0.5
50
180
51
270
0
ARC
8
0
10
254.15
20
-63.65
40
0.5
50
270
51
0
0
LINE
8
0
10
264.9625
20
-50.15
11
277.9625
21
-50.15
0
LINE
8
0
10
264.9625
20
-64.15
11
277.9625
21
-64.15
0
LINE
8
0
10
264.4625
20
-50.65
11
264.4625
21
-63.65
0
LINE
8
0
10
278.4625
20
-50.65
11
278.4625
21
-63.65
0
ARC
8
0
10
264.9625
20
-50.65
40
0.5
50
90
51
180
0
ARC
8
0
10
277.9625
20
-50.65
40
0.5
50
0
51
90
0
ARC
8
0
10
264.9625
20
-63.65
40
0.5
50
180
51
270
0
ARC
8
0
10
277.9625
20
-63.65
40
0.5
50
270
51
0
0
LINE
8
0
10
298.3
20
-50.15
11
311.3
21
-50.15
0
LINE
8
0
10
298.3
20
-64.15
11
311.3
21
-64.15
0
LINE
8
0
10
297.8
20
-50.65
11
297.8
21
-63.65
0
LINE
8
0
10
311.8
20
-50.65
11
311.8
21
-63.65
0
ARC
8
0
10
298.3
20
-50.65
40
0.5
50
90
51
180
0
ARC
8
0
10
311.3
20
-50.65
40
0.5
50
0
51
90
0
ARC
8
0
10
298.3
20
-63.65
40
0.5
50
180
51
270
0
ARC
8
0
10
311.3
20
-63.65
40
0.5
50
270
51
0
0
LINE
8
0
10
317.35
20
-50.15
11
330.35
21
-50.15
0
LINE
8
0
10
317.35
20
-64.15
11
330.35
21
-64.15
0
LINE
8
0
10
316.85
20
-50.65
11
316.85
21
-63.65
0
LINE
8
0
10
330.85
20
-50.65
11
330.85
21
-63.65
0
ARC
8
0
10
317.35
20
-50.65
40
0.5
50
90
51
180
0
ARC
8
0
10
330.35
20
-50.65
40
0.5
50
0
51
90
0
ARC
8
0
10
317.35
20
-63.65
40
0.5
50
180
51
270
0
ARC
8
0
10
330.35
20
-63.65
40
0.5
50
270
51
0
0
LINE
8
0
10
336.4
20
-50.15
11
349.4
21
-50.15
0
LINE
8
0
10
336.4
20
-64.15
11
349.4
21
-64.15
0
LINE
8
0
10
335.9
20
-50.65
11
335.9
21
-63.65
0
LINE
8
0
10
349.9
20
-50.65
11
349.9
21
-63.65
0
ARC
8
0
10
336.4
20
-50.65
40
0.5
50
90
51
180
0
ARC
8
0
10
349.4
20
-50.65
40
0.5
50
0
51
90
0
ARC
8
0
10
336.4
20
-63.65
40
0.5
50
180
51
270
0
ARC
8
0
10
349.4
20
-63.65
40
0.5
50
270
51
0
0
LINE
8
0
10
10.16875
20
-69.2
11
23.16875
21
-69.2
0
LINE
8
0
10
10.16875
20
-83.2
11
23.16875
21
-83.2
0
LINE
8
0
10
9.66875
20
-69.7
11
9.66875
21
-82.7
0
LINE
8
0
10
23.66875
20
-69.7
11
23.66875
21
-82.7
0
ARC
8
0
10
10.16875
20
-69.7
40
0.5
50
90
51
180
0
ARC
8
0
10
23.16875
20
-69.7
40
0.5
50
0
51
90
0
ARC
8
0
10
10.16875
20
-82.7
40
0.5
50
180
51
270
0
ARC
8
0
10
23.16875
20
-82.7
40
0.5
50
270
51
0
0
LINE
8
0
10
36.3625
20
-69.2
11
49.3625
21
-69.2
0
LINE
8
0
10
36.3625
20
-83.2
11
49.3625
21
-83.2
0
LINE
8
0
10
35.8625
20
-69.7
11
35.8625
21
-82.7
0
LINE
8
0
10
49.8625
20
-69.7
11
49.8625
21
-82.7
0
ARC
8
0
10
36.3625
20
-69.7
40
0.5
50
90
51
180
0
ARC
8
0
10
49.3625
20
-69.7
40
0.5
50
0
51
90
0
ARC
8
0
10
36.3625
20
-82.7
40
0.5
50
180
51
270
0
ARC
8
0
10
49.3625
20
-82.7
40
0.5
50
270
51
0
0
LINE
8
0
10
55.4125
20
-69.2
11
68.4125
21
-69.2
0
LINE
8
0
10
55.4125
20
-83.2
11
68.4125
21
-83.2
0
LINE
8
0
10
54.9125
20
-69.7
11
54.9125
21
-82.7
0
LINE
8
0
10
68.9125
20
-69.7
11
68.9125
21
-82.7
0
ARC
8
0
10
55.4125
20
-69.7
40
0.5
50
90
51
180
0
ARC
8
0
10
68.4125
20
-69.7
40
0.5
50
0
51
90
0
ARC
8
0
10
55.4125
20
-82.7
40
0.5
50
180
51
270
0
ARC
8
0
10
68.4125
20
-82.7
40
0.5
50
270
51
0
0
LINE
8
0
10
74.4625
20
-69.2
11
87.4625
21
-69.2
0
LINE
8
0
10
74.4625
20
-83.2
11
87.4625
21
-83.2
0
LINE
8
0
10
73.9625
20
-69.7
11
73.9625
21
-82.7
0
LINE
8
0
10
87.9625
20
-69.7
11
87.9625
21
-82.7
0
ARC
8
0
10
74.4625
20
-69.7
40
0.5
50
90
51
180
0
ARC
8
0
10
87.4625
20
-69.7
40
0.5
50
0
51
90
0
ARC
8
0
10
74.4625
20
-82.7
40
0.5
50
180
51
270
0
ARC
8
0
10
87.4625
20
-82.7
40
0.5
50
270
51
0
0
LINE
8
0
10
93.5125
20
-69.2
11
106.5125
21
-69.2
0
LINE
8
0
10
93.5125
20
-83.2
11
106.5125
21
-83.2
0
LINE
8
0
10
93.0125
20
-69.7
11
93.0125
21
-82.7
0
LINE
8
0
10
107.0125
20
-69.7
11
107.0125
21
-82.7
0
ARC
8
0
10
93.5125
20
-69.7
40
0.5
50
90
51
180
0
ARC
8
0
10
106.5125
20
-69.7
40
0.5
50
0
51
90
0
ARC
8
0
10
93.5125
20
-82.7
40
0.5
50
180
51
270
0
ARC
8
0
10
106.5125
20
-82.7
40
0.5
50
270
51
0
0
LINE
8
0
10
112.5625
20
-69.2
11
125.5625
21
-69.2
0
LINE
8
0
10
112.5625
20
-83.2
11
125.5625
21
-83.2
0
LINE
8
0
10
112.0625
20
-69.7
11
112.0625
21
-82.7
0
LINE
8
0
10
126.0625
20
-69.7
11
126.0625
21
-82.7
0
ARC
8
0
10
112.5625
20
-69.7
40
0.5
50
90
51
180
0
ARC
8
0
10
125.5625
20
-69.7
40
0.5
50
0
51
90
0
ARC
8
0
10
112.5625
20
-82.7
40
0.5
50
180
51
270
0
ARC
8
0
10
125.5625
20
-82.7
40
0.5
50
270
51
0
0
LINE
8
0
10
131.6125
20
-69.2
11
144.6125
21
-69.2
0
LINE
8
0
10
131.6125
20
-83.2
11
144.6125
21
-83.2
0
LINE
8
0
10
131.1125
20
-69.7
11
131.1125
21
-82.7
0
LINE
8
0
10
145.1125
20
-69.7
11
145.1125
21
-82.7
0
ARC
8
0
10
131.6125
20
-69.7
40
0.5
50
90
51
180
0
ARC
8
0
10
144.6125
20
-69.7
40
0.5
50
0
51
90
0
ARC
8
0
10
131.6125
20
-82.7
40
0.5
50
180
51
270
0
ARC
8
0
10
144.6125
20
-82.7
40
0.5
50
270
51
0
0
LINE
8
0
10
150.6625
20
-69.2
11
163.6625
21
-69.2
0
LINE
8
0
10
150.6625
20
-83.2
11
163.6625
21
-83.2
0
LINE
8
0
10
150.1625
20
-69.7
11
150.1625
21
-82.7
0
LINE
8
0
10
164.1625
20
-69.7
11
164.1625
21
-82.7
0
ARC
8
0
10
150.6625
20
-69.7
40
0.5
50
90
51
180
0
ARC
8
0
10
163.6625
20
-69.7
40
0.5
50
0
51
90
0
ARC
8
0
10
150.6625
20
-82.7
40
0.5
50
180
51
270
0
ARC
8
0
10
163.6625
20
-82.7
40
0.5
50
270
51
0
0
LINE
8
0
10
169.7125
20
-69.2
11
182.7125
21
-69.2
0
LINE
8
0
10
169.7125
20
-83.2
11
182.7125
21
-83.2
0
LINE
8
0
10
169.2125
20
-69.7
11
169.2125
21
-82.7
0
LINE
8
0
10
183.2125
20
-69.7
11
183.2125
21
-82.7
0
ARC
8
0
10
169.7125
20
-69.7
40
0.5
50
90
51
180
0
ARC
8
0
10
182.7125
20
-69.7
40
0.5
50
0
51
90
0
ARC
8
0
10
169.7125
20
-82.7
40
0.5
50
180
51
270
0
ARC
8
0
10
182.7125
20
-82.7
40
0.5
50
270
51
0
0
LINE
8
0
10
188.7625
20
-69.2
11
201.7625
21
-69.2
0
LINE
8
0
10
188.7625
20
-83.2
11
201.7625
21
-83.2
0
LINE
8
0
10
188.2625
20
-69.7
11
188.2625
21
-82.7
0
LINE
8
0
10
202.2625
20
-69.7
11
202.2625
21
-82.7
0
ARC
8
0
10
188.7625
20
-69.7
40
0.5
50
90
51
180
0
ARC
8
0
10
201.7625
20
-69.7
40
0.5
50
0
51
90
0
ARC
8
0
10
188.7625
20
-82.7
40
0.5
50
180
51
270
0
ARC
8
0
10
201.7625
20
-82.7
40
0.5
50
270
51
0
0
LINE
8
0
10
207.8125
20
-69.2
11
220.8125
21
-69.2
0
LINE
8
0
10
207.8125
20
-83.2
11
220.8125
21
-83.2
0
LINE
8
0
10
207.3125
20
-69.7
11
207.3125
21
-82.7
0
LINE
8
0
10
221.3125
20
-69.7
11
221.3125
21
-82.7
0
ARC
8
0
10
207.8125
20
-69.7
40
0.5
50
90
51
180
0
ARC
8
0
10
220.8125
20
-69.7
40
0.5
50
0
51
90
0
ARC
8
0
10
207.8125
20
-82.7
40
0.5
50
180
51
270
0
ARC
8
0
10
220.8125
20
-82.7
40
0.5
50
270
51
0
0
LINE
8
0
10
226.8625
20
-69.2
11
239.8625
21
-69.2
0
LINE
8
0
10
226.8625
20
-83.2
11
239.8625
21
-83.2
0
LINE
8
0
10
226.3625
20
-69.7
11
226.3625
21
-82.7
0
LINE
8
0
10
240.3625
20
-69.7
11
240.3625
21
-82.7
0
ARC
8
0
10
226.8625
20
-69.7
40
0.5
50
90
51
180
0
ARC
8
0
10
239.8625
20
-69.7
40
0.5
50
0
51
90
0
ARC
8
0
10
226.8625
20
-82.7
40
0.5
50
180
51
270
0
ARC
8
0
10
239.8625
20
-82.7
40
0.5
50
270
51
0
0
LINE
8
0
10
257.81875
20
-69.2
11
270.81875
21
-69.2
0
LINE
8
0
10
257.81875
20
-83.2
11
270.81875
21
-83.2
0
LINE
8
0
10
257.31875
20
-69.7
11
257.31875
21
-82.7
0
LINE
8
0
10
271.31875
20
-69.7
11
271.31875
21
-82.7
0
ARC
8
0
10
257.81875
20
-69.7
40
0.5
50
90
51
180
0
ARC
8
0
10
270.81875
20
-69.7
40
0.5
50
0
51
90
0
ARC
8
0
10
257.81875
20
-82.7
40
0.5
50
180
51
270
0
ARC
8
0
10
270.81875
20
-82.7
40
0.5
50
270
51
0
0
LINE
8
0
10
249.55335
20
-70.5104
11
255.20815
21
-70.5104
0
LINE
8
0
10
255.70815
20
-71.0104
11
255.70815
21
-71.3232
0
LINE
8
0
10
255.70815
20
-71.3232
11
264.31875
21
-71.3232
0
LINE
8
0
10
264.31875
20
-82.0166
11
256.20815
21
-82.0166
0
LINE
8
0
10
255.70815
20
-82.5166
11
255.70815
21
-82.804
0
LINE
8
0
10
255.70815
20
-82.804
11
254.40475
21
-82.804
0
LINE
8
0
10
253.90475
20
-83.304
11
253.90475
21
-83.4724
0
LINE
8
0
10
253.40475
20
-83.9724
11
251.35675
21
-83.9724
0
LINE
8
0
10
250.85675
20
-83.4724
11
250.85675
21
-83.304
0
LINE
8
0
10
250.35675
20
-82.804
11
249.55335
21
-82.804
0
LINE
8
0
10
249.05335
20
-82.304
11
249.05335
21
-77.208
0
LINE
8
0
10
248.55335
20
-76.708
11
248.18975
21
-76.708
0
LINE
8
0
10
248.18975
20
-76.708
11
248.18975
21
-74.414
0
LINE
8
0
10
248.68975
20
-73.914
11
249.05335
21
-73.914
0
LINE
8
0
10
249.05335
20
-73.914
11
249.05335
21
-71.0104
0
ARC
8
0
10
255.20815
20
-71.0104
40
0.5
50
0
51
90
0
ARC
8
0
10
256.20815
20
-82.5166
40
0.5
50
90
51
180
0
ARC
8
0
10
254.40475
20
-83.304
40
0.5
50
90
51
180
0
ARC
8
0
10
253.40475
20
-83.4724
40
0.5
50
270
51
0
0
ARC
8
0
10
251.35675
20
-83.4724
40
0.5
50
180
51
270
0
ARC
8
0
10
250.35675
20
-83.304
40
0.5
50
0
51
90
0
ARC
8
0
10
249.55335
20
-82.304
40
0.5
50
180
51
270
0
ARC
8
0
10
248.55335
20
-77.208
40
0.5
50
0
51
90
0
ARC
8
0
10
248.68975
20
-74.414
40
0.5
50
90
51
180
0
ARC
8
0
10
249.55335
20
-71.0104
40
0.5
50
90
51
180
0
LINE
8
0
10
279.08415
20
-70.5104
11
273.42935
21
-70.5104
0
LINE
8
0
10
272.92935
20
-71.0104
11
272.92935
21
-71.3232
0
LINE
8
0
10
272.92935
20
-71.3232
11
264.31875
21
-71.3232
0
LINE
8
0
10
264.31875
20
-82.0166
11
272.42935
21
-82.0166
0
LINE
8
0
10
272.92935
20
-82.5166
11
272.92935
21
-82.804
0
LINE
8
0
10
272.92935
20
-82.804
11
274.23275
21
-82.804
0
LINE
8
0
10
274.73275
20
-83.304
11
274.73275
21
-83.4724
0
LINE
8
0
10
275.23275
20
-83.9724
11
277.28075
21
-83.9724
0
LINE
8
0
10
277.78075
20
-83.4724
11
277.78075
21
-83.304
0
LINE
8
0
10
278.28075
20
-82.804
11
279.08415
21
-82.804
0
LINE
8
0
10
279.58415
20
-82.304
11
279.58415
21
-77.208
0
LINE
8
0
10
280.08415
20
-76.708
11
280.44775
21
-76.708
0
LINE
8
0
10
280.44775
20
-76.708
11
280.44775
21
-74.414
0
LINE
8
0
10
279.94775
20
-73.914
11
279.58415
21
-73.914
0
LINE
8
0
10
279.58415
20
-73.914
11
279.58415
21
-71.0104
0
ARC
8
0
10
273.42935
20
-71.0104
40
0.5
50
90
51
180
0
ARC
8
0
10
272.42935
20
-82.5166
40
0.5
50
0
51
90
0
ARC
8
0
10
274.23275
20
-83.304
40
0.5
50
0
51
90
0
ARC
8
0
10
275.23275
20
-83.4724
40
0.5
50
180
51
270
0
ARC
8
0
10
277.28075
20
-83.4724
40
0.5
50
270
51
0
0
ARC
8
0
10
278.28075
20
-83.304
40
0.5
50
90
51
180
0
ARC
8
0
10
279.08415
20
-82.304
40
0.5
50
270
51
0
0
ARC
8
0
10
280.08415
20
-77.208
40
0.5
50
90
51
180
0
ARC
8
0
10
279.94775
20
-74.414
40
0.5
50
0
51
90
0
ARC
8
0
10
279.08415
20
-71.0104
40
0.5
50
0
51
90
0
LINE
8
0
10
364.975
20
-69.2
11
377.975
21
-69.2
0
LINE
8
0
10
364.975
20
-83.2
11
377.975
21
-83.2
0
LINE
8
0
10
364.475
20
-69.7
11
364.475
21
-82.7
0
LINE
8
0
10
378.475
20
-69.7
11
378.475
21
-82.7
0
ARC
8
0
10
364.975
20
-69.7
40
0.5
50
90
51
180
0
ARC
8
0
10
377.975
20
-69.7
40
0.5
50
0
51
90
0
ARC
8
0
10
364.975
20
-82.7
40
0.5
50
180
51
270
0
ARC
8
0
10
377.975
20
-82.7
40
0.5
50
270
51
0
0
LINE
8
0
10
384.025
20
-69.2
11
397.025
21
-69.2
0
LINE
8
0
10
384.025
20
-83.2
11
397.025
21
-83.2
0
LINE
8
0
10
383.525
20
-69.7
11
383.525
21
-82.7
0
LINE
8
0
10
397.525
20
-69.7
11
397.525
21
-82.7
0
ARC
8
0
10
384.025
20
-69.7
40
0.5
50
90
51
180
0
ARC
8
0
10
397.025
20
-69.7
40
0.5
50
0
51
90
0
ARC
8
0
10
384.025
20
-82.7
40
0.5
50
180
51
270
0
ARC
8
0
10
397.025
20
-82.7
40
0.5
50
270
51
0
0
LINE
8
0
10
403.075
20
-69.2
11
416.075
21
-69.2
0
LINE
8
0
10
403.075
20
-83.2
11
416.075
21
-83.2
0
LINE
8
0
10
402.575
20
-69.7
11
402.575
21
-82.7
0
LINE
8
0
10
416.575
20
-69.7
11
416.575
21
-82.7
0
ARC
8
0
10
403.075
20
-69.7
40
0.5
50
90
51
180
0
ARC
8
0
10
416.075
20
-69.7
40
0.5
50
0
51
90
0
ARC
8
0
10
403.075
20
-82.7
40
0.5
50
180
51
270
0
ARC
8
0
10
416.075
20
-82.7
40
0.5
50
270
51
0
0
LINE
8
0
10
14.93125
20
-88.25
11
27.93125
21
-88.25
0
LINE
8
0
10
14.93125
20
-102.25
11
27.93125
21
-102.25
0
LINE
8
0
10
14.43125
20
-88.75
11
14.43125
21
-101.75
0
LINE
8
0
10
28.43125
20
-88.75
11
28.43125
21
-101.75
0
ARC
8
0
10
14.93125
20
-88.75
40
0.5
50
90
51
180
0
ARC
8
0
10
27.93125
20
-88.75
40
0.5
50
0
51
90
0
ARC
8
0
10
14.93125
20
-101.75
40
0.5
50
180
51
270
0
ARC
8
0
10
27.93125
20
-101.75
40
0.5
50
270
51
0
0
LINE
8
0
10
6.66585
20
-89.5604
11
12.32065
21
-89.5604
0
LINE
8
0
10
12.82065
20
-90.0604
11
12.82065
21
-90.3732
0
LINE
8
0
10
12.82065
20
-90.3732
11
21.43125
21
-90.3732
0
LINE
8
0
10
21.43125
20
-101.0666
11
13.32065
21
-101.0666
0
LINE
8
0
10
12.82065
20
-101.5666
11
12.82065
21
-101.854
0
LINE
8
0
10
12.82065
20
-101.854
11
11.51725
21
-101.854
0
LINE
8
0
10
11.01725
20
-102.354
11
11.01725
21
-102.5224
0
LINE
8
0
10
10.51725
20
-103.0224
11
8.46925
21
-103.0224
0
LINE
8
0
10
7.96925
20
-102.5224
11
7.96925
21
-102.354
0
LINE
8
0
10
7.46925
20
-101.854
11
6.66585
21
-101.854
0
LINE
8
0
10
6.16585
20
-101.354
11
6.16585
21
-96.258
0
LINE
8
0
10
5.66585
20
-95.758
11
5.30225
21
-95.758
0
LINE
8
0
10
5.30225
20
-95.758
11
5.30225
21
-93.464
0
LINE
8
0
10
5.80225
20
-92.964
11
6.16585
21
-92.964
0
LINE
8
0
10
6.16585
20
-92.964
11
6.16585
21
-90.0604
0
ARC
8
0
10
12.32065
20
-90.0604
40
0.5
50
0
51
90
0
ARC
8
0
10
13.32065
20
-101.5666
40
0.5
50
90
51
180
0
ARC
8
0
10
11.51725
20
-102.354
40
0.5
50
90
51
180
0
ARC
8
0
10
10.51725
20
-102.5224
40
0.5
50
270
51
0
0
ARC
8
0
10
8.46925
20
-102.5224
40
0.5
50
180
51
270
0
ARC
8
0
10
7.46925
20
-102.354
40
0.5
50
0
51
90
0
ARC
8
0
10
6.66585
20
-101.354
40
0.5
50
180
51
270
0
ARC
8
0
10
5.66585
20
-96.258
40
0.5
50
0
51
90
0
ARC
8
0
10
5.80225
20
-93.464
40
0.5
50
90
51
180
0
ARC
8
0
10
6.66585
20
-90.0604
40
0.5
50
90
51
180
0
LINE
8
0
10
36.19665
20
-89.5604
11
30.54185
21
-89.5604
0
LINE
8
0
10
30.04185
20
-90.0604
11
30.04185
21
-90.3732
0
LINE
8
0
10
30.04185
20
-90.3732
11
21.43125
21
-90.3732
0
LINE
8
0
10
21.43125
20
-101.0666
11
29.54185
21
-101.0666
0
LINE
8
0
10
30.04185
20
-101.5666
11
30.04185
21
-101.854
0
LINE
8
0
10
30.04185
20
-101.854
11
31.34525
21
-101.854
0
LINE
8
0
10
31.84525
20
-102.354
11
31.84525
21
-102.5224
0
LINE
8
0
10
32.34525
20
-103.0224
11
34.39325
21
-103.0224
0
LINE
8
0
10
34.89325
20
-102.5224
11
34.89325
21
-102.354
0
LINE
8
0
10
35.39325
20
-101.854
11
36.19665
21
-101.854
0
LINE
8
0
10
36.69665
20
-101.354
11
36.69665
21
-96.258
0
LINE
8
0
10
37.19665
20
-95.758
11
37.56025
21
-95.758
0
LINE
8
0
10
37.56025
20
-95.758
11
37.56025
21
-93.464
0
LINE
8
0
10
37.06025
20
-92.964
11
36.69665
21
-92.964
0
LINE
8
0
10
36.69665
20
-92.964
11
36.69665
21
-90.0604
0
ARC
8
0
10
30.54185
20
-90.0604
40
0.5
50
90
51
180
0
ARC
8
0
10
29.54185
20
-101.5666
40
0.5
50
0
51
90
0
ARC
8
0
10
31.34525
20
-102.354
40
0.5
50
0
51
90
0
ARC
8
0
10
32.34525
20
-102.5224
40
0.5
50
180
51
270
0
ARC
8
0
10
34.39325
20
-102.5224
40
0.5
50
270
51
0
0
ARC
8
0
10
35.39325
20
-102.354
40
0.5
50
90
51
180
0
ARC
8
0
10
36.19665
20
-101.354
40
0.5
50
270
51
0
0
ARC
8
0
10
37.19665
20
-96.258
40
0.5
50
90
51
180
0
ARC
8
0
10
37.06025
20
-93.464
40
0.5
50
0
51
90
0
ARC
8
0
10
36.19665
20
-90.0604
40
0.5
50
0
51
90
0
LINE
8
0
10
45.8875
20
-88.25
11
58.8875
21
-88.25
0
LINE
8
0
10
45.8875
20
-102.25
11
58.8875
21
-102.25
0
LINE
8
0
10
45.3875
20
-88.75
11
45.3875
21
-101.75
0
LINE
8
0
10
59.3875
20
-88.75
11
59.3875
21
-101.75
0
ARC
8
0
10
45.8875
20
-88.75
40
0.5
50
90
51
180
0
ARC
8
0
10
58.8875
20
-88.75
40
0.5
50
0
51
90
0
ARC
8
0
10
45.8875
20
-101.75
40
0.5
50
180
51
270
0
ARC
8
0
10
58.8875
20
-101.75
40
0.5
50
270
51
0
0
LINE
8
0
10
64.9375
20
-88.25
11
77.9375
21
-88.25
0
LINE
8
0
10
64.9375
20
-102.25
11
77.9375
21
-102.25
0
LINE
8
0
10
64.4375
20
-88.75
11
64.4375
21
-101.75
0
LINE
8
0
10
78.4375
20
-88.75
11
78.4375
21
-101.75
0
ARC
8
0
10
64.9375
20
-88.75
40
0.5
50
90
51
180
0
ARC
8
0
10
77.9375
20
-88.75
40
0.5
50
0
51
90
0
ARC
8
0
10
64.9375
20
-101.75
40
0.5
50
180
51
270
0
ARC
8
0
10
77.9375
20
-101.75
40
0.5
50
270
51
0
0
LINE
8
0
10
83.9875
20
-88.25
11
96.9875
21
-88.25
0
LINE
8
0
10
83.9875
20
-102.25
11
96.9875
21
-102.25
0
LINE
8
0
10
83.4875
20
-88.75
11
83.4875
21
-101.75
0
LINE
8
0
10
97.4875
20
-88.75
11
97.4875
21
-101.75
0
ARC
8
0
10
83.9875
20
-88.75
40
0.5
50
90
51
180
0
ARC
8
0
10
96.9875
20
-88.75
40
0.5
50
0
51
90
0
ARC
8
0
10
83.9875
20
-101.75
40
0.5
50
180
51
270
0
ARC
8
0
10
96.9875
20
-101.75
40
0.5
50
270
51
0
0
LINE
8
0
10
103.0375
20
-88.25
11
116.0375
21
-88.25
0
LINE
8
0
10
103.0375
20
-102.25
11
116.0375
21
-102.25
0
LINE
8
0
10
102.5375
20
-88.75
11
102.5375
21
-101.75
0
LINE
8
0
10
116.5375
20
-88.75
11
116.5375
21
-101.75
0
ARC
8
0
10
103.0375
20
-88.75
40
0.5
50
90
51
180
0
ARC
8
0
10
116.0375
20
-88.75
40
0.5
50
0
51
90
0
ARC
8
0
10
103.0375
20
-101.75
40
0.5
50
180
51
270
0
ARC
8
0
10
116.0375
20
-101.75
40
0.5
50
270
51
0
0
LINE
8
0
10
122.0875
20
-88.25
11
135.0875
21
-88.25
0
LINE
8
0
10
122.0875
20
-102.25
11
135.0875
21
-102.25
0
LINE
8
0
10
121.5875
20
-88.75
11
121.5875
21
-101.75
0
LINE
8
0
10
135.5875
20
-88.75
11
135.5875
21
-101.75
0
ARC
8
0
10
122.0875
20
-88.75
40
0.5
50
90
51
180
0
ARC
8
0
10
135.0875
20
-88.75
40
0.5
50
0
51
90
0
ARC
8
0
10
122.0875
20
-101.75
40
0.5
50
180
51
270
0
ARC
8
0
10
135.0875
20
-101.75
40
0.5
50
270
51
0
0
LINE
8
0
10
141.1375
20
-88.25
11
154.1375
21
-88.25
0
LINE
8
0
10
141.1375
20
-102.25
11
154.1375
21
-102.25
0
LINE
8
0
10
140.6375
20
-88.75
11
140.6375
21
-101.75
0
LINE
8
0
10
154.6375
20
-88.75
11
154.6375
21
-101.75
0
ARC
8
0
10
141.1375
20
-88.75
40
0.5
50
90
51
180
0
ARC
8
0
10
154.1375
20
-88.75
40
0.5
50
0
51
90
0
ARC
8
0
10
141.1375
20
-101.75
40
0.5
50
180
51
270
0
ARC
8
0
10
154.1375
20
-101.75
40
0.5
50
270
51
0
0
LINE
8
0
10
160.1875
20
-88.25
11
173.1875
21
-88.25
0
LINE
8
0
10
160.1875
20
-102.25
11
173.1875
21
-102.25
0
LINE
8
0
10
159.6875
20
-88.75
11
159.6875
21
-101.75
0
LINE
8
0
10
173.6875
20
-88.75
11
173.6875
21
-101.75
0
ARC
8
0
10
160.1875
20
-88.75
40
0.5
50
90
51
180
0
ARC
8
0
10
173.1875
20
-88.75
40
0.5
50
0
51
90
0
ARC
8
0
10
160.1875
20
-101.75
40
0.5
50
180
51
270
0
ARC
8
0
10
173.1875
20
-101.75
40
0.5
50
270
51
0
0
LINE
8
0
10
179.2375
20
-88.25
11
192.2375
21
-88.25
0
LINE
8
0
10
179.2375
20
-102.25
11
192.2375
21
-102.25
0
LINE
8
0
10
178.7375
20
-88.75
11
178.7375
21
-101.75
0
LINE
8
0
10
192.7375
20
-88.75
11
192.7375
21
-101.75
0
ARC
8
0
10
179.2375
20
-88.75
40
0.5
50
90
51
180
0
ARC
8
0
10
192.2375
20
-88.75
40
0.5
50
0
51
90
0
ARC
8
0
10
179.2375
20
-101.75
40
0.5
50
180
51
270
0
ARC
8
0
10
192.2375
20
-101.75
40
0.5
50
270
51
0
0
LINE
8
0
10
198.2875
20
-88.25
11
211.2875
21
-88.25
0
LINE
8
0
10
198.2875
20
-102.25
11
211.2875
21
-102.25
0
LINE
8
0
10
197.7875
20
-88.75
11
197.7875
21
-101.75
0
LINE
8
0
10
211.7875
20
-88.75
11
211.7875
21
-101.75
0
ARC
8
0
10
198.2875
20
-88.75
40
0.5
50
90
51
180
0
ARC
8
0
10
211.2875
20
-88.75
40
0.5
50
0
51
90
0
ARC
8
0
10
198.2875
20
-101.75
40
0.5
50
180
51
270
0
ARC
8
0
10
211.2875
20
-101.75
40
0.5
50
270
51
0
0
LINE
8
0
10
217.3375
20
-88.25
11
230.3375
21
-88.25
0
LINE
8
0
10
217.3375
20
-102.25
11
230.3375
21
-102.25
0
LINE
8
0
10
216.8375
20
-88.75
11
216.8375
21
-101.75
0
LINE
8
0
10
230.8375
20
-88.75
11
230.8375
21
-101.75
0
ARC
8
0
10
217.3375
20
-88.75
40
0.5
50
90
51
180
0
ARC
8
0
10
230.3375
20
-88.75
40
0.5
50
0
51
90
0
ARC
8
0
10
217.3375
20
-101.75
40
0.5
50
180
51
270
0
ARC
8
0
10
230.3375
20
-101.75
40
0.5
50
270
51
0
0
LINE
8
0
10
253.05625
20
-88.25
11
266.05625
21
-88.25
0
LINE
8
0
10
253.05625
20
-102.25
11
266.05625
21
-102.25
0
LINE
8
0
10
252.55625
20
-88.75
11
252.55625
21
-101.75
0
LINE
8
0
10
266.55625
20
-88.75
11
266.55625
21
-101.75
0
ARC
8
0
10
253.05625
20
-88.75
40
0.5
50
90
51
180
0
ARC
8
0
10
266.05625
20
-88.75
40
0.5
50
0
51
90
0
ARC
8
0
10
253.05625
20
-101.75
40
0.5
50
180
51
270
0
ARC
8
0
10
266.05625
20
-101.75
40
0.5
50
270
51
0
0
LINE
8
0
10
244.79085
20
-89.5604
11
250.44565
21
-89.5604
0
LINE
8
0
10
250.94565
20
-90.0604
11
250.94565
21
-90.3732
0
LINE
8
0
10
250.94565
20
-90.3732
11
259.55625
21
-90.3732
0
LINE
8
0
10
259.55625
20
-101.0666
11
251.44565
21
-101.0666
0
LINE
8
0
10
250.94565
20
-101.5666
11
250.94565
21
-101.854
0
LINE
8
0
10
250.94565
20
-101.854
11
249.64225
21
-101.854
0
LINE
8
0
10
249.14225
20
-102.354
11
249.14225
21
-102.5224
0
LINE
8
0
10
248.64225
20
-103.0224
11
246.59425
21
-103.0224
0
LINE
8
0
10
246.09425
20
-102.5224
11
246.09425
21
-102.354
0
LINE
8
0
10
245.59425
20
-101.854
11
244.79085
21
-101.854
0
LINE
8
0
10
244.29085
20
-101.354
11
244.29085
21
-96.258
0
LINE
8
0
10
243.79085
20
-95.758
11
243.42725
21
-95.758
0
LINE
8
0
10
243.42725
20
-95.758
11
243.42725
21
-93.464
0
LINE
8
0
10
243.92725
20
-92.964
11
244.29085
21
-92.964
0
LINE
8
0
10
244.29085
20
-92.964
11
244.29085
21
-90.0604
0
ARC
8
0
10
250.44565
20
-90.0604
40
0.5
50
0
51
90
0
ARC
8
0
10
251.44565
20
-101.5666
40
0.5
50
90
51
180
0
ARC
8
0
10
249.64225
20
-102.354
40
0.5
50
90
51
180
0
ARC
8
0
10
248.64225
20
-102.5224
40
0.5
50
270
51
0
0
ARC
8
0
10
246.59425
20
-102.5224
40
0.5
50
180
51
270
0
ARC
8
0
10
245.59425
20
-102.354
40
0.5
50
0
51
90
0
ARC
8
0
10
244.79085
20
-101.354
40
0.5
50
180
51
270
0
ARC
8
0
10
243.79085
20
-96.258
40
0.5
50
0
51
90
0
ARC
8
0
10
243.92725
20
-93.464
40
0.5
50
90
51
180
0
ARC
8
0
10
244.79085
20
-90.0604
40
0.5
50
90
51
180
0
LINE
8
0
10
274.32165
20
-89.5604
11
268.66685
21
-89.5604
0
LINE
8
0
10
268.16685
20
-90.0604
11
268.16685
21
-90.3732
0
LINE
8
0
10
268.16685
20
-90.3732
11
259.55625
21
-90.3732
0
LINE
8
0
10
259.55625
20
-101.0666
11
267.66685
21
-101.0666
0
LINE
8
0
10
268.16685
20
-101.5666
11
268.16685
21
-101.854
0
LINE
8
0
10
268.16685
20
-101.854
11
269.47025
21
-101.854
0
LINE
8
0
10
269.97025
20
-102.354
11
269.97025
21
-102.5224
0
LINE
8
0
10
270.47025
20
-103.0224
11
272.51825
21
-103.0224
0
LINE
8
0
10
273.01825
20
-102.5224
11
273.01825
21
-102.354
0
LINE
8
0
10
273.51825
20
-101.854
11
274.32165
21
-101.854
0
LINE
8
0
10
274.82165
20
-101.354
11
274.82165
21
-96.258
0
LINE
8
0
10
275.32165
20
-95.758
11
275.68525
21
-95.758
0
LINE
8
0
10
275.68525
20
-95.758
11
275.68525
21
-93.464
0
LINE
8
0
10
275.18525
20
-92.964
11
274.82165
21
-92.964
0
LINE
8
0
10
274.82165
20
-92.964
11
274.82165
21
-90.0604
0
ARC
8
0
10
268.66685
20
-90.0604
40
0.5
50
90
51
180
0
ARC
8
0
10
267.66685
20
-101.5666
40
0.5
50
0
51
90
0
ARC
8
0
10
269.47025
20
-102.354
40
0.5
50
0
51
90
0
ARC
8
0
10
270.47025
20
-102.5224
40
0.5
50
180
51
270
0
ARC
8
0
10
272.51825
20
-102.5224
40
0.5
50
270
51
0
0
ARC
8
0
10
273.51825
20
-102.354
40
0.5
50
90
51
180
0
ARC
8
0
10
274.32165
20
-101.354
40
0.5
50
270
51
0
0
ARC
8
0
10
275.32165
20
-96.258
40
0.5
50
90
51
180
0
ARC
8
0
10
275.18525
20
-93.464
40
0.5
50
0
51
90
0
ARC
8
0
10
274.32165
20
-90.0604
40
0.5
50
0
51
90
0
LINE
8
0
10
298.3
20
-88.25
11
311.3
21
-88.25
0
LINE
8
0
10
298.3
20
-102.25
11
311.3
21
-102.25
0
LINE
8
0
10
297.8
20
-88.75
11
297.8
21
-101.75
0
LINE
8
0
10
311.8
20
-88.75
11
311.8
21
-101.75
0
ARC
8
0
10
298.3
20
-88.75
40
0.5
50
90
51
180
0
ARC
8
0
10
311.3
20
-88.75
40
0.5
50
0
51
90
0
ARC
8
0
10
298.3
20
-101.75
40
0.5
50
180
51
270
0
ARC
8
0
10
311.3
20
-101.75
40
0.5
50
270
51
0
0
LINE
8
0
10
317.35
20
-88.25
11
330.35
21
-88.25
0
LINE
8
0
10
317.35
20
-102.25
11
330.35
21
-102.25
0
LINE
8
0
10
316.85
20
-88.75
11
316.85
21
-101.75
0
LINE
8
0
10
330.85
20
-88.75
11
330.85
21
-101.75
0
ARC
8
0
10
317.35
20
-88.75
40
0.5
50
90
51
180
0
ARC
8
0
10
330.35
20
-88.75
40
0.5
50
0
51
90
0
ARC
8
0
10
317.35
20
-101.75
40
0.5
50
180
51
270
0
ARC
8
0
10
330.35
20
-101.75
40
0.5
50
270
51
0
0
LINE
8
0
10
336.4
20
-88.25
11
349.4
21
-88.25
0
LINE
8
0
10
336.4
20
-102.25
11
349.4
21
-102.25
0
LINE
8
0
10
335.9
20
-88.75
11
335.9
21
-101.75
0
LINE
8
0
10
349.9
20
-88.75
11
349.9
21
-101.75
0
ARC
8
0
10
336.4
20
-88.75
40
0.5
50
90
51
180
0
ARC
8
0
10
349.4
20
-88.75
40
0.5
50
0
51
90
0
ARC
8
0
10
336.4
20
-101.75
40
0.5
50
180
51
270
0
ARC
8
0
10
349.4
20
-101.75
40
0.5
50
270
51
0
0
LINE
8
0
10
364.975
20
-88.25
11
377.975
21
-88.25
0
LINE
8
0
10
364.975
20
-102.25
11
377.975
21
-102.25
0
LINE
8
0
10
364.475
20
-88.75
11
364.475
21
-101.75
0
LINE
8
0
10
378.475
20
-88.75
11
378.475
21
-101.75
0
ARC
8
0
10
364.975
20
-88.75
40
0.5
50
90
51
180
0
ARC
8
0
10
377.975
20
-88.75
40
0.5
50
0
51
90
0
ARC
8
0
10
364.975
20
-101.75
40
0.5
50
180
51
270
0
ARC
8
0
10
377.975
20
-101.75
40
0.5
50
270
51
0
0
LINE
8
0
10
384.025
20
-88.25
11
397.025
21
-88.25
0
LINE
8
0
10
384.025
20
-102.25
11
397.025
21
-102.25
0
LINE
8
0
10
383.525
20
-88.75
11
383.525
21
-101.75
0
LINE
8
0
10
397.525
20
-88.75
11
397.525
21
-101.75
0
ARC
8
0
10
384.025
20
-88.75
40
0.5
50
90
51
180
0
ARC
8
0
10
397.025
20
-88.75
40
0.5
50
0
51
90
0
ARC
8
0
10
384.025
20
-101.75
40
0.5
50
180
51
270
0
ARC
8
0
10
397.025
20
-101.75
40
0.5
50
270
51
0
0
LINE
8
0
10
403.075
20
-88.25
11
416.075
21
-88.25
0
LINE
8
0
10
403.075
20
-102.25
11
416.075
21
-102.25
0
LINE
8
0
10
402.575
20
-88.75
11
402.575
21
-101.75
0
LINE
8
0
10
416.575
20
-88.75
11
416.575
21
-101.75
0
ARC
8
0
10
403.075
20
-88.75
40
0.5
50
90
51
180
0
ARC
8
0
10
416.075
20
-88.75
40
0.5
50
0
51
90
0
ARC
8
0
10
403.075
20
-101.75
40
0.5
50
180
51
270
0
ARC
8
0
10
416.075
20
-101.75
40
0.5
50
270
51
0
0
LINE
8
0
10
3.025
20
-107.3
11
16.025
21
-107.3
0
LINE
8
0
10
3.025
20
-121.3
11
16.025
21
-121.3
0
LINE
8
0
10
2.525
20
-107.8
11
2.525
21
-120.8
0
LINE
8
0
10
16.525
20
-107.8
11
16.525
21
-120.8
0
ARC
8
0
10
3.025
20
-107.8
40
0.5
50
90
51
180
0
ARC
8
0
10
16.025
20
-107.8
40
0.5
50
0
51
90
0
ARC
8
0
10
3.025
20
-120.8
40
0.5
50
180
51
270
0
ARC
8
0
10
16.025
20
-120.8
40
0.5
50
270
51
0
0
LINE
8
0
10
22.075
20
-107.3
11
35.075
21
-107.3
0
LINE
8
0
10
22.075
20
-121.3
11
35.075
21
-121.3
0
LINE
8
0
10
21.575
20
-107.8
11
21.575
21
-120.8
0
LINE
8
0
10
35.575
20
-107.8
11
35.575
21
-120.8
0
ARC
8
0
10
22.075
20
-107.8
40
0.5
50
90
51
180
0
ARC
8
0
10
35.075
20
-107.8
40
0.5
50
0
51
90
0
ARC
8
0
10
22.075
20
-120.8
40
0.5
50
180
51
270
0
ARC
8
0
10
35.075
20
-120.8
40
0.5
50
270
51
0
0
LINE
8
0
10
41.125
20
-107.3
11
54.125
21
-107.3
0
LINE
8
0
10
41.125
20
-121.3
11
54.125
21
-121.3
0
LINE
8
0
10
40.625
20
-107.8
11
40.625
21
-120.8
0
LINE
8
0
10
54.625
20
-107.8
11
54.625
21
-120.8
0
ARC
8
0
10
41.125
20
-107.8
40
0.5
50
90
51
180
0
ARC
8
0
10
54.125
20
-107.8
40
0.5
50
0
51
90
0
ARC
8
0
10
41.125
20
-120.8
40
0.5
50
180
51
270
0
ARC
8
0
10
54.125
20
-120.8
40
0.5
50
270
51
0
0
LINE
8
0
10
60.175
20
-107.3
11
73.175
21
-107.3
0
LINE
8
0
10
60.175
20
-121.3
11
73.175
21
-121.3
0
LINE
8
0
10
59.675
20
-107.8
11
59.675
21
-120.8
0
LINE
8
0
10
73.675
20
-107.8
11
73.675
21
-120.8
0
ARC
8
0
10
60.175
20
-107.8
40
0.5
50
90
51
180
0
ARC
8
0
10
73.175
20
-107.8
40
0.5
50
0
51
90
0
ARC
8
0
10
60.175
20
-120.8
40
0.5
50
180
51
270
0
ARC
8
0
10
73.175
20
-120.8
40
0.5
50
270
51
0
0
LINE
8
0
10
129.23125
20
-107.3
11
142.23125
21
-107.3
0
LINE
8
0
10
129.23125
20
-121.3
11
142.23125
21
-121.3
0
LINE
8
0
10
128.73125
20
-107.8
11
128.73125
21
-120.8
0
LINE
8
0
10
142.73125
20
-107.8
11
142.73125
21
-120.8
0
ARC
8
0
10
129.23125
20
-107.8
40
0.5
50
90
51
180
0
ARC
8
0
10
142.23125
20
-107.8
40
0.5
50
0
51
90
0
ARC
8
0
10
129.23125
20
-120.8
40
0.5
50
180
51
270
0
ARC
8
0
10
142.23125
20
-120.8
40
0.5
50
270
51
0
0
LINE
8
0
10
82.90385
20
-108.6104
11
88.55865
21
-108.6104
0
LINE
8
0
10
89.05865
20
-109.1104
11
89.05865
21
-111.5
0
LINE
8
0
10
89.55865
20
-112
11
135.73125
21
-112
0
LINE
8
0
10
135.73125
20
-116.6
11
89.55865
21
-116.6
0
LINE
8
0
10
89.05865
20
-117.1
11
89.05865
21
-120.404
0
LINE
8
0
10
88.55865
20
-120.904
11
87.75525
21
-120.904
0
LINE
8
0
10
87.25525
20
-121.404
11
87.25525
21
-121.5724
0
LINE
8
0
10
86.75525
20
-122.0724
11
84.70725
21
-122.0724
0
LINE
8
0
10
84.20725
20
-121.5724
11
84.20725
21
-121.404
0
LINE
8
0
10
83.70725
20
-120.904
11
82.90385
21
-120.904
0
LINE
8
0
10
82.40385
20
-120.404
11
82.40385
21
-115.308
0
LINE
8
0
10
81.90385
20
-114.808
11
81.54025
21
-114.808
0
LINE
8
0
10
81.54025
20
-114.808
11
81.54025
21
-112.514
0
LINE
8
0
10
82.04025
20
-112.014
11
82.40385
21
-112.014
0
LINE
8
0
10
82.40385
20
-112.014
11
82.40385
21
-109.1104
0
ARC
8
0
10
88.55865
20
-109.1104
40
0.5
50
0
51
90
0
ARC
8
0
10
89.55865
20
-111.5
40
0.5
50
180
51
270
0
ARC
8
0
10
89.55865
20
-117.1
40
0.5
50
90
51
180
0
ARC
8
0
10
88.55865
20
-120.404
40
0.5
50
270
51
0
0
ARC
8
0
10
87.75525
20
-121.404
40
0.5
50
90
51
180
0
ARC
8
0
10
86.75525
20
-121.5724
40
0.5
50
270
51
0
0
ARC
8
0
10
84.70725
20
-121.5724
40
0.5
50
180
51
270
0
ARC
8
0
10
83.70725
20
-121.404
40
0.5
50
0
51
90
0
ARC
8
0
10
82.90385
20
-120.404
40
0.5
50
180
51
270
0
ARC
8
0
10
81.90385
20
-115.308
40
0.5
50
0
51
90
0
ARC
8
0
10
82.04025
20
-112.514
40
0.5
50
90
51
180
0
ARC
8
0
10
82.90385
20
-109.1104
40
0.5
50
90
51
180
0
LINE
8
0
10
188.55865
20
-108.6104
11
182.90385
21
-108.6104
0
LINE
8
0
10
182.40385
20
-109.1104
11
182.40385
21
-111.5
0
LINE
8
0
10
181.90385
20
-112
11
135.73125
21
-112
0
LINE
8
0
10
135.73125
20
-116.6
11
181.90385
21
-116.6
0
LINE
8
0
10
182.40385
20
-117.1
11
182.40385
21
-120.404
0
LINE
8
0
10
182.90385
20
-120.904
11
183.70725
21
-120.904
0
LINE
8
0
10
184.20725
20
-121.404
11
184.20725
21
-121.5724
0
LINE
8
0
10
184.70725
20
-122.0724
11
186.75525
21
-122.0724
0
LINE
8
0
10
187.25525
20
-121.5724
11
187.25525
21
-121.404
0
LINE
8
0
10
187.75525
20
-120.904
11
188.55865
21
-120.904
0
LINE
8
0
10
189.05865
20
-120.404
11
189.05865
21
-115.308
0
LINE
8
0
10
189.55865
20
-114.808
11
189.92225
21
-114.808
0
LINE
8
0
10
189.92225
20
-114.808
11
189.92225
21
-112.514
0
LINE
8
0
10
189.42225
20
-112.014
11
189.05865
21
-112.014
0
LINE
8
0
10
189.05865
20
-112.014
11
189.05865
21
-109.1104
0
ARC
8
0
10
182.90385
20
-109.1104
40
0.5
50
90
51
180
0
ARC
8
0
10
181.90385
20
-111.5
40
0.5
50
270
51
0
0
ARC
8
0
10
181.90385
20
-117.1
40
0.5
50
0
51
90
0
ARC
8
0
10
182.90385
20
-120.404
40
0.5
50
180
51
270
0
ARC
8
0
10
183.70725
20
-121.404
40
0.5
50
0
51
90
0
ARC
8
0
10
184.70725
20
-121.5724
40
0.5
50
180
51
270
0
ARC
8
0
10
186.75525
20
-121.5724
40
0.5
50
270
51
0
0
ARC
8
0
10
187.75525
20
-121.404
40
0.5
50
90
51
180
0
ARC
8
0
10
188.55865
20
-120.404
40
0.5
50
270
51
0
0
ARC
8
0
10
189.55865
20
-115.308
40
0.5
50
90
51
180
0
ARC
8
0
10
189.42225
20
-112.514
40
0.5
50
0
51
90
0
ARC
8
0
10
188.55865
20
-109.1104
40
0.5
50
0
51
90
0
LINE
8
0
10
198.2875
20
-107.3
11
211.2875
21
-107.3
0
LINE
8
0
10
198.2875
20
-121.3
11
211.2875
21
-121.3
0
LINE
8
0
10
197.7875
20
-107.8
11
197.7875
21
-120.8
0
LINE
8
0
10
211.7875
20
-107.8
11
211.7875
21
-120.8
0
ARC
8
0
10
198.2875
20
-107.8
40
0.5
50
90
51
180
0
ARC
8
0
10
211.2875
20
-107.8
40
0.5
50
0
51
90
0
ARC
8
0
10
198.2875
20
-120.8
40
0.5
50
180
51
270
0
ARC
8
0
10
211.2875
20
-120.8
40
0.5
50
270
51
0
0
LINE
8
0
10
219.71875
20
-107.3
11
232.71875
21
-107.3
0
LINE
8
0
10
219.71875
20
-121.3
11
232.71875
21
-121.3
0
LINE
8
0
10
219.21875
20
-107.8
11
219.21875
21
-120.8
0
LINE
8
0
10
233.21875
20
-107.8
11
233.21875
21
-120.8
0
ARC
8
0
10
219.71875
20
-107.8
40
0.5
50
90
51
180
0
ARC
8
0
10
232.71875
20
-107.8
40
0.5
50
0
51
90
0
ARC
8
0
10
219.71875
20
-120.8
40
0.5
50
180
51
270
0
ARC
8
0
10
232.71875
20
-120.8
40
0.5
50
270
51
0
0
LINE
8
0
10
243.53125
20
-107.3
11
256.53125
21
-107.3
0
LINE
8
0
10
243.53125
20
-121.3
11
256.53125
21
-121.3
0
LINE
8
0
10
243.03125
20
-107.8
11
243.03125
21
-120.8
0
LINE
8
0
10
257.03125
20
-107.8
11
257.03125
21
-120.8
0
ARC
8
0
10
243.53125
20
-107.8
40
0.5
50
90
51
180
0
ARC
8
0
10
256.53125
20
-107.8
40
0.5
50
0
51
90
0
ARC
8
0
10
243.53125
20
-120.8
40
0.5
50
180
51
270
0
ARC
8
0
10
256.53125
20
-120.8
40
0.5
50
270
51
0
0
LINE
8
0
10
267.34375
20
-107.3
11
280.34375
21
-107.3
0
LINE
8
0
10
267.34375
20
-121.3
11
280.34375
21
-121.3
0
LINE
8
0
10
266.84375
20
-107.8
11
266.84375
21
-120.8
0
LINE
8
0
10
280.84375
20
-107.8
11
280.84375
21
-120.8
0
ARC
8
0
10
267.34375
20
-107.8
40
0.5
50
90
51
180
0
ARC
8
0
10
280.34375
20
-107.8
40
0.5
50
0
51
90
0
ARC
8
0
10
267.34375
20
-120.8
40
0.5
50
180
51
270
0
ARC
8
0
10
280.34375
20
-120.8
40
0.5
50
270
51
0
0
LINE
8
0
10
298.3
20
-107.3
11
311.3
21
-107.3
0
LINE
8
0
10
298.3
20
-121.3
11
311.3
21
-121.3
0
LINE
8
0
10
297.8
20
-107.8
11
297.8
21
-120.8
0
LINE
8
0
10
311.8
20
-107.8
11
311.8
21
-120.8
0
ARC
8
0
10
298.3
20
-107.8
40
0.5
50
90
51
180
0
ARC
8
0
10
311.3
20
-107.8
40
0.5
50
0
51
90
0
ARC
8
0
10
298.3
20
-120.8
40
0.5
50
180
51
270
0
ARC
8
0
10
311.3
20
-120.8
40
0.5
50
270
51
0
0
LINE
8
0
10
317.35
20
-107.3
11
330.35
21
-107.3
0
LINE
8
0
10
317.35
20
-121.3
11
330.35
21
-121.3
0
LINE
8
0
10
316.85
20
-107.8
11
316.85
21
-120.8
0
LINE
8
0
10
330.85
20
-107.8
11
330.85
21
-120.8
0
ARC
8
0
10
317.35
20
-107.8
40
0.5
50
90
51
180
0
ARC
8
0
10
330.35
20
-107.8
40
0.5
50
0
51
90
0
ARC
8
0
10
317.35
20
-120.8
40
0.5
50
180
51
270
0
ARC
8
0
10
330.35
20
-120.8
40
0.5
50
270
51
0
0
LINE
8
0
10
336.4
20
-107.3
11
349.4
21
-107.3
0
LINE
8
0
10
336.4
20
-121.3
11
349.4
21
-121.3
0
LINE
8
0
10
335.9
20
-107.8
11
335.9
21
-120.8
0
LINE
8
0
10
349.9
20
-107.8
11
349.9
21
-120.8
0
ARC
8
0
10
336.4
20
-107.8
40
0.5
50
90
51
180
0
ARC
8
0
10
349.4
20
-107.8
40
0.5
50
0
51
90
0
ARC
8
0
10
336.4
20
-120.8
40
0.5
50
180
51
270
0
ARC
8
0
10
349.4
20
-120.8
40
0.5
50
270
51
0
0
LINE
8
0
10
0
20
-123.825
11
419.1
21
-123.825
0
LINE
8
0
10
0
20
0
11
419.1
21
0
0
LINE
8
0
10
0
20
-123.825
11
0
21
0
0
LINE
8
0
10
419.1
20
-123.825
11
419.1
21
0
0
ENDSEC
0
EOF